<?xml version="1.0" encoding="UTF-8" standalone="no"?>
<svg
   width="50"
   height="50"
   viewBox="0 0 50 50"
   version="1.1"
   id="svg4"
   sodipodi:docname="icon.svg"
   inkscape:version="1.3.1 (91b66b0783, 2023-11-16)"
   xmlns:inkscape="http://www.inkscape.org/namespaces/inkscape"
   xmlns:sodipodi="http://sodipodi.sourceforge.net/DTD/sodipodi-0.dtd"
   xmlns="http://www.w3.org/2000/svg"
   xmlns:svg="http://www.w3.org/2000/svg">
  <sodipodi:namedview
     id="namedview1"
     pagecolor="#ffffff"
     bordercolor="#999999"
     borderopacity="1"
     inkscape:showpageshadow="0"
     inkscape:pageopacity="0"
     inkscape:pagecheckerboard="0"
     inkscape:deskcolor="#d1d1d1"
     inkscape:zoom="5.865"
     inkscape:cx="73.572037"
     inkscape:cy="45.268542"
     inkscape:window-width="1346"
     inkscape:window-height="1237"
     inkscape:window-x="260"
     inkscape:window-y="116"
     inkscape:window-maximized="0"
     inkscape:current-layer="svg4" />
  <defs
     id="defs4" />
  <g
     id="g12"
     transform="matrix(0.13108204,0,0,0.13108204,-8.5570022,-8.5570022)">
    <g
       id="g6">
      <path
         class="st0"
         d="m 339.55,296.88 h -29.18 l -9.77,52.7 h -21.34 l 9.9,-52.7 H 259.34 V 276.7 h 33.55 l 7.58,-40.36 H 268.98 V 215.9 h 35.35 l 10.03,-53.47 h 21.21 l -10.03,53.47 h 29.18 l 10.03,-53.47 h 21.47 l -10.03,53.47 h 26.61 v 20.44 h -30.46 l -7.58,40.36 h 28.28 v 20.18 h -32.01 l -9.9,52.7 h -21.34 z m -25.32,-20.19 h 29.18 l 7.46,-40.36 h -29.18 z"
         id="path4-7"
         style="fill:#8ad03a" />
    </g>
    <g
       id="g10">
      <path
         class="st1"
         d="m 243.53,268.08 c 0,11.05 -1.41,21.66 -4.24,31.81 -2.83,10.15 -7.05,19.11 -12.66,26.87 -5.61,7.76 -12.64,13.93 -21.08,18.51 -8.44,4.58 -18.32,6.88 -29.63,6.88 -11.23,0 -21,-2.31 -29.31,-6.94 -8.31,-4.63 -15.23,-10.82 -20.76,-18.58 -5.53,-7.75 -9.69,-16.69 -12.47,-26.8 -2.79,-10.11 -4.18,-20.7 -4.18,-31.75 v -23.91 c 0,-7.37 0.62,-14.57 1.86,-21.6 1.24,-7.03 3.09,-13.65 5.53,-19.86 2.44,-6.21 5.48,-11.95 9.13,-17.22 3.64,-5.27 7.93,-9.79 12.85,-13.56 4.93,-3.77 10.5,-6.73 16.71,-8.87 6.21,-2.14 13.05,-3.21 20.5,-3.21 11.31,0 21.19,2.31 29.63,6.94 8.44,4.63 15.49,10.82 21.15,18.57 5.66,7.76 9.9,16.73 12.73,26.93 2.83,10.2 4.24,20.82 4.24,31.88 z m -30.98,-24.16 c -0.09,-7.03 -0.73,-14.01 -1.93,-20.95 -1.2,-6.94 -3.21,-13.13 -6.04,-18.57 -2.83,-5.44 -6.58,-9.85 -11.25,-13.24 -4.67,-3.38 -10.52,-5.08 -17.55,-5.08 -6.94,0 -12.71,1.69 -17.29,5.08 -4.59,3.39 -8.23,7.82 -10.93,13.3 -2.7,5.49 -4.59,11.68 -5.66,18.57 -1.07,6.9 -1.65,13.86 -1.74,20.89 v 24.17 c 0.08,7.03 0.68,13.99 1.8,20.89 1.11,6.9 3.02,13.11 5.72,18.64 2.7,5.53 6.34,10.01 10.93,13.43 4.58,3.43 10.35,5.14 17.29,5.14 7.03,0 12.87,-1.71 17.55,-5.14 4.67,-3.43 8.42,-7.88 11.25,-13.37 2.83,-5.48 4.82,-11.7 5.98,-18.64 1.16,-6.94 1.78,-13.92 1.86,-20.95 v -24.17 z"
         id="path8"
         style="fill:#a24689" />
    </g>
  </g>
</svg>
