<?xml version="1.0" encoding="UTF-8" standalone="no"?>
<!-- Generator: Adobe Illustrator 24.1.1, SVG Export Plug-In . SVG Version: 6.00 Build 0)  -->

<svg
   version="1.1"
   id="Ebene_1"
   x="0px"
   y="0px"
   viewBox="0 0 512 512"
   style="enable-background:new 0 0 512 512;"
   xml:space="preserve"
   sodipodi:docname="icon.svg"
   inkscape:export-filename="icon.png"
   inkscape:export-xdpi="18.75"
   inkscape:export-ydpi="18.75"
   inkscape:version="1.3.1 (91b66b0783, 2023-11-16)"
   xmlns:inkscape="http://www.inkscape.org/namespaces/inkscape"
   xmlns:sodipodi="http://sodipodi.sourceforge.net/DTD/sodipodi-0.dtd"
   xmlns="http://www.w3.org/2000/svg"
   xmlns:svg="http://www.w3.org/2000/svg"
   xmlns:rdf="http://www.w3.org/1999/02/22-rdf-syntax-ns#"
   xmlns:cc="http://creativecommons.org/ns#"
   xmlns:dc="http://purl.org/dc/elements/1.1/"><metadata
   id="metadata19"><rdf:RDF><cc:Work
       rdf:about=""><dc:format>image/svg+xml</dc:format><dc:type
         rdf:resource="http://purl.org/dc/dcmitype/StillImage" /></cc:Work></rdf:RDF></metadata><defs
   id="defs17" /><sodipodi:namedview
   pagecolor="#ffffff"
   bordercolor="#666666"
   borderopacity="1"
   objecttolerance="10"
   gridtolerance="10"
   guidetolerance="10"
   inkscape:pageopacity="0"
   inkscape:pageshadow="2"
   inkscape:window-width="1346"
   inkscape:window-height="1237"
   id="namedview15"
   showgrid="false"
   inkscape:zoom="0.4609375"
   inkscape:cx="221.28814"
   inkscape:cy="257.08475"
   inkscape:window-x="2327"
   inkscape:window-y="75"
   inkscape:window-maximized="0"
   inkscape:current-layer="Ebene_1"
   inkscape:showpageshadow="0"
   inkscape:pagecheckerboard="0"
   inkscape:deskcolor="#d1d1d1" />
<style
   type="text/css"
   id="style2">
	.st0{fill:#8AD03A;}
	.st1{fill:#A24689;}
</style>
<g
   id="g12">
	<g
   id="g6">
		<path
   class="st0"
   d="M339.55,296.88h-29.18l-9.77,52.7h-21.34l9.9-52.7h-29.82v-20.18h33.55l7.58-40.36h-31.49v-20.44h35.35    l10.03-53.47h21.21l-10.03,53.47h29.18l10.03-53.47h21.47l-10.03,53.47h26.61v20.44h-30.46l-7.58,40.36h28.28v20.18h-32.01    l-9.9,52.7h-21.34L339.55,296.88z M314.23,276.69h29.18l7.46-40.36h-29.18L314.23,276.69z"
   id="path4" />
	</g>
	<g
   id="g10">
		<path
   class="st1"
   d="M243.53,268.08c0,11.05-1.41,21.66-4.24,31.81c-2.83,10.15-7.05,19.11-12.66,26.87    c-5.61,7.76-12.64,13.93-21.08,18.51c-8.44,4.58-18.32,6.88-29.63,6.88c-11.23,0-21-2.31-29.31-6.94    c-8.31-4.63-15.23-10.82-20.76-18.58c-5.53-7.75-9.69-16.69-12.47-26.8c-2.79-10.11-4.18-20.7-4.18-31.75v-23.91    c0-7.37,0.62-14.57,1.86-21.6c1.24-7.03,3.09-13.65,5.53-19.86c2.44-6.21,5.48-11.95,9.13-17.22c3.64-5.27,7.93-9.79,12.85-13.56    c4.93-3.77,10.5-6.73,16.71-8.87c6.21-2.14,13.05-3.21,20.5-3.21c11.31,0,21.19,2.31,29.63,6.94    c8.44,4.63,15.49,10.82,21.15,18.57c5.66,7.76,9.9,16.73,12.73,26.93c2.83,10.2,4.24,20.82,4.24,31.88V268.08z M212.55,243.92    c-0.09-7.03-0.73-14.01-1.93-20.95c-1.2-6.94-3.21-13.13-6.04-18.57c-2.83-5.44-6.58-9.85-11.25-13.24    c-4.67-3.38-10.52-5.08-17.55-5.08c-6.94,0-12.71,1.69-17.29,5.08c-4.59,3.39-8.23,7.82-10.93,13.3    c-2.7,5.49-4.59,11.68-5.66,18.57c-1.07,6.9-1.65,13.86-1.74,20.89v24.17c0.08,7.03,0.68,13.99,1.8,20.89    c1.11,6.9,3.02,13.11,5.72,18.64s6.34,10.01,10.93,13.43c4.58,3.43,10.35,5.14,17.29,5.14c7.03,0,12.87-1.71,17.55-5.14    c4.67-3.43,8.42-7.88,11.25-13.37c2.83-5.48,4.82-11.7,5.98-18.64s1.78-13.92,1.86-20.95V243.92z"
   id="path8" />
	</g>
</g>
</svg>
